<svg xmlns="http://www.w3.org/2000/svg" width="56" height="56" viewBox="0 0 56 56">
    <path fill="#C42032" fill-rule="evenodd" d="M56 0v56H0V42.775h2.412L5.6 47.514h3.705l-3.576-5.256c1.853-.689 3.145-2.196 3.145-4.566v-.043c0-1.378-.43-2.541-1.25-3.36-.947-.99-2.412-1.507-4.264-1.507H0V0h56zM24.77 49.323H10.08v2.8h14.69v-2.8zm6.245-16.757c-2.972 0-5.126 1.766-5.126 4.437v.043c0 2.886 1.896 3.705 4.868 4.48 2.455.603 2.972 1.034 2.972 1.852v.044c0 .861-.775 1.378-2.11 1.378-1.68 0-3.059-.69-4.394-1.766l-1.896 2.283c1.766 1.594 4.006 2.37 6.246 2.37 3.145 0 5.385-1.638 5.385-4.567 0-2.585-1.68-3.662-4.695-4.437-2.542-.646-3.188-.99-3.188-1.938v-.043c0-.733.646-1.293 1.895-1.293 1.25 0 2.542.56 3.834 1.465l1.68-2.456c-1.508-1.163-3.317-1.852-5.47-1.852zm-17.446.216H10.08V47.47h3.188v-9.52l4.092 6.203h.086l4.136-6.29v9.607h3.23V32.78h-3.489l-3.877 6.204-3.877-6.203zM3.102 35.668c1.593 0 2.541.732 2.541 2.154l-.005.153c-.072 1.162-.966 1.914-2.493 1.914H0v-4.221z"/>
</svg>
