<svg xmlns="http://www.w3.org/2000/svg" width="26" height="26" viewBox="0 0 26 26">
    <g fill="none" fill-rule="evenodd">
        <circle cx="13" cy="13" r="9" fill="#C41230"/>
        <circle cx="13" cy="13" r="5" fill="#FFF"/>
        <path fill="#FFF" d="M24.18 0A1.82 1.82 0 0 1 26 1.82v22.36A1.82 1.82 0 0 1 24.18 26H1.82A1.82 1.82 0 0 1 0 24.18V1.82A1.82 1.82 0 0 1 1.82 0h22.36zm0 .78H1.82A1.04 1.04 0 0 0 .78 1.82v22.36c0 .574.466 1.04 1.04 1.04h22.36a1.04 1.04 0 0 0 1.04-1.04V1.82A1.04 1.04 0 0 0 24.18.78zM13 3.77a9.23 9.23 0 1 1 0 18.46 9.23 9.23 0 0 1 0-18.46zm0 .78a8.45 8.45 0 1 0 0 16.9 8.45 8.45 0 0 0 0-16.9zm0 3.64a4.81 4.81 0 1 1 0 9.62 4.81 4.81 0 0 1 0-9.62zm0 .78a4.03 4.03 0 1 0 0 8.06 4.03 4.03 0 0 0 0-8.06z"/>
    </g>
</svg>
