<?xml version="1.0" encoding="UTF-8"?>
<svg width="15px" height="18px" viewBox="0 0 15 18" version="1.1" xmlns="http://www.w3.org/2000/svg" xmlns:xlink="http://www.w3.org/1999/xlink">
    <!-- Generator: Sketch 61.1 (89650) - https://sketch.com -->
    <title>Icons / Copy</title>
    <desc>Created with Sketch.</desc>
    <g id="06.0-Developers-Center-✅" stroke="none" stroke-width="1" fill="none" fill-rule="evenodd">
        <g id="06.3-Developers-Center---API-Library" transform="translate(-1143.000000, -911.000000)">
            <g id="Group-52-Copy-2" transform="translate(407.000000, 899.000000)">
                <g id="Header" transform="translate(1.000000, 1.000000)">
                    <g id="Icons-/-Copy" transform="translate(733.000000, 11.000000)">
                        <g id="Icon">
                            <polygon id="Bounds" points="0 0 18 0 18 18 0 18"></polygon>
                            <path d="M12.75,0.75 L3.75,0.75 C2.925,0.75 2.25,1.425 2.25,2.25 L2.25,12.75 L3.75,12.75 L3.75,2.25 L12.75,2.25 L12.75,0.75 Z M12,3.75 L16.5,8.25 L16.5,15.75 C16.5,16.575 15.825,17.25 15,17.25 L6.7425,17.25 C5.9175,17.25 5.25,16.575 5.25,15.75 L5.2575,5.25 C5.2575,4.425 5.925,3.75 6.75,3.75 L12,3.75 Z M11.25,9 L15.375,9 L11.25,4.875 L11.25,9 Z" id="Shape" fill="#165FCF"></path>
                        </g>
                    </g>
                </g>
            </g>
        </g>
    </g>
</svg>