<?xml version="1.0" encoding="UTF-8"?>
<svg width="23px" height="23px" viewBox="0 0 23 23" version="1.1" xmlns="http://www.w3.org/2000/svg" xmlns:xlink="http://www.w3.org/1999/xlink">
    <!-- Generator: Sketch 61.1 (89650) - https://sketch.com -->
    <title>Assets / icons / Search</title>
    <desc>Created with Sketch.</desc>
    <g id="06.0-Developers-Center-✅" stroke="none" stroke-width="1" fill="none" fill-rule="evenodd">
        <g id="06.1-Developers-Center---Landing-page" transform="translate(-426.000000, -329.000000)">
            <g id="Search-input-open-Copy" transform="translate(407.000000, 314.000000)">
                <g id="Assets-/-icons-/-Search" transform="translate(16.000000, 12.000000)">
                    <g id="Icon">
                        <g>
                            <polygon id="Bounds" points="0 0 30 0 30 30 0 30"></polygon>
                            <path d="M19.375,17.5 L18.3875,17.5 L18.0375,17.1625 C19.2625,15.7375 20,13.8875 20,11.875 C20,7.3875 16.3625,3.75 11.875,3.75 C7.3875,3.75 3.75,7.3875 3.75,11.875 C3.75,16.3625 7.3875,20 11.875,20 C13.8875,20 15.7375,19.2625 17.1625,18.0375 L17.5,18.3875 L17.5,19.375 L23.75,25.6125 L25.6125,23.75 L19.375,17.5 L19.375,17.5 Z M11.875,17.5 C8.7625,17.5 6.25,14.9875 6.25,11.875 C6.25,8.7625 8.7625,6.25 11.875,6.25 C14.9875,6.25 17.5,8.7625 17.5,11.875 C17.5,14.9875 14.9875,17.5 11.875,17.5 L11.875,17.5 Z" id="Shape" fill="#5B616C"></path>
                        </g>
                    </g>
                </g>
            </g>
        </g>
    </g>
</svg>