<svg xmlns="http://www.w3.org/2000/svg" width="60" height="60" viewBox="0 0 60 60">
    <g fill="none" fill-rule="evenodd">
        <path fill="#F5F9FF" d="M8 0h44a8 8 0 0 1 8 8v44a8 8 0 0 1-8 8H8a8 8 0 0 1-8-8V8a8 8 0 0 1 8-8z"/>
        <path fill="#468FFF" d="M45.48 12A2.52 2.52 0 0 1 48 14.52v30.96A2.52 2.52 0 0 1 45.48 48H14.52A2.52 2.52 0 0 1 12 45.48V14.52A2.52 2.52 0 0 1 14.52 12h30.96zm0 1.08H14.52a1.44 1.44 0 0 0-1.44 1.44v30.96c0 .795.645 1.44 1.44 1.44h30.96a1.44 1.44 0 0 0 1.44-1.44V14.52a1.44 1.44 0 0 0-1.44-1.44zm-8.631 9.36c1.98 0 3.591 1.62 3.591 3.612v8.256c0 1.992-1.61 3.612-3.591 3.612H23.511c-1.98 0-3.591-1.62-3.591-3.612v-8.256c0-1.992 1.61-3.612 3.591-3.612zm0 1.032H23.511a2.556 2.556 0 0 0-2.565 2.58v8.256a2.556 2.556 0 0 0 2.565 2.58h13.338a2.556 2.556 0 0 0 2.565-2.58v-8.256a2.556 2.556 0 0 0-2.565-2.58zm-9.01 2.838a.505.505 0 0 1 .273.065l6.156 3.354a.517.517 0 1 1 0 .911l-6.156 3.354a.514.514 0 0 1-.754-.46v-6.708a.514.514 0 0 1 .481-.516zm.546 1.387v4.974l4.568-2.491-4.569-2.483z"/>
    </g>
</svg>
