<svg xmlns="http://www.w3.org/2000/svg" width="60" height="60" viewBox="0 0 60 60">
    <g fill="none" fill-rule="evenodd">
        <path fill="#FFF" fill-opacity=".296" d="M8 0h44a8 8 0 0 1 8 8v44a8 8 0 0 1-8 8H8a8 8 0 0 1-8-8V8a8 8 0 0 1 8-8z"/>
        <path fill="#2A5599" d="M45.48 12A2.52 2.52 0 0 1 48 14.52v30.96A2.52 2.52 0 0 1 45.48 48H14.52A2.52 2.52 0 0 1 12 45.48V14.52A2.52 2.52 0 0 1 14.52 12h30.96zm0 1.08H14.52a1.44 1.44 0 0 0-1.44 1.44v30.96c0 .795.645 1.44 1.44 1.44h30.96a1.44 1.44 0 0 0 1.44-1.44V14.52a1.44 1.44 0 0 0-1.44-1.44zM30 17.22c7.058 0 12.78 5.722 12.78 12.78 0 7.058-5.722 12.78-12.78 12.78-7.058 0-12.78-5.722-12.78-12.78 0-7.058 5.722-12.78 12.78-12.78zm0 1.08c-6.462 0-11.7 5.238-11.7 11.7 0 6.462 5.238 11.7 11.7 11.7 6.462 0 11.7-5.238 11.7-11.7 0-6.462-5.238-11.7-11.7-11.7zm0 5.04a6.66 6.66 0 1 1 0 13.32 6.66 6.66 0 0 1 0-13.32zm0 1.08a5.58 5.58 0 1 0 0 11.16 5.58 5.58 0 0 0 0-11.16z"/>
    </g>
</svg>
